<svg id="Hand" xmlns="http://www.w3.org/2000/svg" viewBox="0 0 1273.27 324.14"><defs><style>.cls-1,.cls-2{fill:none;stroke-linecap:round;}.cls-1,.cls-3{stroke:#fff;}.cls-1,.cls-2,.cls-3,.cls-4{stroke-miterlimit:10;}.cls-1{stroke-width:22px;}.cls-2,.cls-4{stroke:#000;}.cls-2{stroke-width:14px;}.cls-3{stroke-width:2px;}.cls-4{fill:#0071bc;stroke-width:3px;}</style></defs><title>Logo1_map501</title><line class="cls-1" x1="18.27" y1="302.16" x2="1262.27" y2="302.16"/><line class="cls-2" x1="19.27" y1="302.16" x2="1263.27" y2="302.16"/><path class="cls-3" d="M322.42,272.63l-29-115.28v124.9q0,10.38-4.62,15.56a17,17,0,0,1-24.38.06q-4.7-5.13-4.69-15.62V139.08q0-11.85,6.17-16T282.55,119h11.36q10.24,0,14.87,1.85a12.49,12.49,0,0,1,6.85,6.67,103.26,103.26,0,0,1,5.06,15.67L347,242.26l26.29-99.11a103.26,103.26,0,0,1,5.06-15.67,12.53,12.53,0,0,1,6.85-6.67q4.63-1.84,14.87-1.85h11.36q10.48,0,16.66,4.14t6.17,16V282.25q0,10.38-4.63,15.56T417.21,303a15.42,15.42,0,0,1-12-5.18q-4.69-5.19-4.69-15.56V157.35l-29,115.28q-2.84,11.24-4.63,16.47a22.7,22.7,0,0,1-6.6,9.57Q355.5,303,347,303a19.52,19.52,0,0,1-17.77-9.87,40.06,40.06,0,0,1-3.89-9.57Q323.9,278.3,322.42,272.63Z" transform="translate(-27.73 -29.84)"/><path class="cls-3" d="M554.71,284a104.44,104.44,0,0,1-23.64,14.26A66.22,66.22,0,0,1,505.46,303a48.56,48.56,0,0,1-22.77-5.12A37.37,37.37,0,0,1,467.57,284a36,36,0,0,1-5.31-19A34,34,0,0,1,471,241.4q8.78-9.75,24.07-13.08,3.21-.75,15.92-3.34t21.79-4.75q9.08-2.16,19.68-5.24-.62-13.34-5.36-19.57t-19.69-6.23q-12.84,0-19.32,3.58A31.46,31.46,0,0,0,497,203.51a111.6,111.6,0,0,1-6.54,9.44c-1.27,1.52-4,2.28-8.2,2.28a14.36,14.36,0,0,1-9.82-3.64,11.86,11.86,0,0,1-4.13-9.32q0-8.88,6.29-17.27t19.63-13.83q13.32-5.43,33.2-5.43,22.22,0,34.93,5.25t18,16.6q5.23,11.35,5.24,30.11,0,11.85-.06,20.12t-.18,18.39A68,68,0,0,0,588.46,276q3.15,10.31,3.15,13.27,0,5.19-4.88,9.44a16.33,16.33,0,0,1-11,4.26q-5.19,0-10.25-4.88A72,72,0,0,1,554.71,284Zm-2.23-48.75A169.92,169.92,0,0,1,531,241q-14.15,3-19.57,4.44A26.61,26.61,0,0,0,501,251q-4.95,4.13-4.94,11.54a17.08,17.08,0,0,0,5.8,13q5.81,5.37,15.18,5.37a39.36,39.36,0,0,0,18.45-4.39,29.19,29.19,0,0,0,12.41-11.29q4.56-7.65,4.56-25.18Z" transform="translate(-27.73 -29.84)"/><path class="cls-3" d="M647.52,184.87v4.07q9.51-11.72,19.75-17.21a48.33,48.33,0,0,1,23.2-5.5,53.74,53.74,0,0,1,28.64,8q13.08,8,20.67,23.45t7.59,36.53A89.12,89.12,0,0,1,743,262.81a64,64,0,0,1-12,21.85,52.7,52.7,0,0,1-18.08,13.58A53.57,53.57,0,0,1,690.47,303q-14.43,0-24.25-5.8t-18.7-17v50.6q0,22.22-16.17,22.22-9.5,0-12.59-5.74t-3.08-16.73V185.12q0-9.63,4.2-14.38T631.35,166A15.18,15.18,0,0,1,643,170.86Q647.52,175.74,647.52,184.87Zm66,49q0-13.34-4.07-22.89a33.52,33.52,0,0,0-11.29-14.69,27,27,0,0,0-16-5.12q-14,0-23.52,11t-9.56,32.34q0,20.12,9.5,31.29T682.21,277a27.11,27.11,0,0,0,15.55-4.88q7.15-4.87,11.47-14.62T713.55,233.87Z" transform="translate(-27.73 -29.84)"/><path class="cls-4" d="M910.09,118.8H837.18l-8.75,49.73q21.8-11.65,40.22-11.66a68.93,68.93,0,0,1,27.55,5.52,70.25,70.25,0,0,1,37.68,38.38,74.19,74.19,0,0,1,5.53,28.7,83.12,83.12,0,0,1-10,40.52,73.66,73.66,0,0,1-28.78,29q-18.79,10.74-43.36,10.74-27.48,0-44.59-10.13t-24.26-23.26q-7.12-13.12-7.13-22.94,0-6,5-11.36a16.39,16.39,0,0,1,12.52-5.38q12.88,0,19.18,14.89,6.13,13.67,16.58,21.26a38.68,38.68,0,0,0,23.33,7.6,35.58,35.58,0,0,0,20.73-6.14,39.8,39.8,0,0,0,13.73-16.88A58.77,58.77,0,0,0,897.2,233q0-14.73-5.22-25.17t-14-15.58a37.73,37.73,0,0,0-19.49-5.15q-13.21,0-18.88,3.23a167,167,0,0,0-16.35,11.28q-10.68,8.05-17.58,8.06a19,19,0,0,1-13.35-5.45q-5.83-5.44-5.83-12.36,0-.77,1.68-10.44l12.9-73.52q2.14-13.2,8-19.19t19-6h81q23.94,0,24,18.26a16.06,16.06,0,0,1-5.84,12.9Q921.45,118.79,910.09,118.8Z" transform="translate(-27.73 -29.84)"/><path class="cls-4" d="M1123.3,195.55q0,25.17-3.07,43.28a100.7,100.7,0,0,1-11.36,32.85q-10.44,18.12-27,27.94a73.4,73.4,0,0,1-78.67-3.38q-18.5-13.2-27.86-36.53a136.27,136.27,0,0,1-7-28.17,234.79,234.79,0,0,1-2.22-33.38,320.45,320.45,0,0,1,2.46-41.76q2.45-18.57,7.67-31.92,9.06-22.11,26.33-33.7t41.21-11.59a76.79,76.79,0,0,1,28.7,5.15,65.48,65.48,0,0,1,22.64,15,86.14,86.14,0,0,1,16.51,24.48Q1123.3,149.2,1123.3,195.55Zm-42.06-3.07q0-28.09-3.37-46t-11.36-27q-8-9.13-22.11-9.14-20.25,0-28.16,20.42t-7.91,62.93q0,28.86,3.38,47.28t11.36,27.86q8,9.45,21.64,9.44,14.13,0,22.1-9.82T1078,240.37Q1081.25,222.1,1081.24,192.48Z" transform="translate(-27.73 -29.84)"/><path class="cls-4" d="M1226.91,284.88V145.2q-39,29.93-52.49,29.93A15.52,15.52,0,0,1,1163,170a16.6,16.6,0,0,1-5-11.9q0-7.83,4.92-11.51t17.34-9.52q18.57-8.75,29.7-18.42A125.45,125.45,0,0,0,1229.68,97q8.6-12,11.2-14.74t9.83-2.76a15.72,15.72,0,0,1,13,6.29q4.92,6.3,4.92,17.35V278.9q0,30.86-21,30.85-9.37,0-15.05-6.29T1226.91,284.88Z" transform="translate(-27.73 -29.84)"/><path class="cls-3" d="M233,133a102.16,102.16,0,1,0-190,52.1A33.44,33.44,0,0,0,44.69,188l70.19,108.75c9,13.87,23.59,13.87,32.54,0L217.61,188a27.68,27.68,0,0,0,3.17-6.5A101.62,101.62,0,0,0,233,133Z" transform="translate(-27.73 -29.84)"/><circle class="cls-4" cx="103.15" cy="104.91" r="51.75"/></svg>