<?xml version="1.0" encoding="UTF-8" standalone="no"?>
<!DOCTYPE svg PUBLIC "-//W3C//DTD SVG 1.1//EN" "http://www.w3.org/Graphics/SVG/1.1/DTD/svg11.dtd">
<svg version="1.1" xmlns="http://www.w3.org/2000/svg" xmlns:xlink="http://www.w3.org/1999/xlink" preserveAspectRatio="xMidYMid meet" viewBox="49.65693430656928 142.72262773722628 178.74452554744522 19.32846715328475" width="174.74" height="15.33"><defs><path d="M95.18 144.45C99.21 144.45 102.48 147.72 102.48 151.75C102.48 153.21 102.48 150.29 102.48 151.75C102.48 155.78 99.21 159.05 95.18 159.05C86.28 159.05 66.86 159.05 57.96 159.05C53.92 159.05 50.66 155.78 50.66 151.75C50.66 150.29 50.66 153.21 50.66 151.75C50.66 147.72 53.92 144.45 57.96 144.45C66.86 144.45 86.28 144.45 95.18 144.45Z" id="a3A9T9IBsm"></path><path d="M156.47 144.45C160.5 144.45 163.77 147.72 163.77 151.75C163.77 153.21 163.77 150.29 163.77 151.75C163.77 155.78 160.5 159.05 156.47 159.05C147.56 159.05 128.15 159.05 119.24 159.05C115.21 159.05 111.94 155.78 111.94 151.75C111.94 150.29 111.94 153.21 111.94 151.75C111.94 147.72 115.21 144.45 119.24 144.45C128.15 144.45 147.56 144.45 156.47 144.45Z" id="a1e61S0HlE"></path><path d="M218.1 143.72C222.13 143.72 225.4 146.99 225.4 151.02C225.4 152.48 225.4 149.56 225.4 151.02C225.4 155.05 222.13 158.32 218.1 158.32C209.2 158.32 189.78 158.32 180.88 158.32C176.84 158.32 173.58 155.05 173.58 151.02C173.58 149.56 173.58 152.48 173.58 151.02C173.58 146.99 176.84 143.72 180.88 143.72C189.78 143.72 209.2 143.72 218.1 143.72Z" id="gSUbwJssk"></path></defs><g><g><use xlink:href="#a3A9T9IBsm" opacity="1" fill="#ff7800" fill-opacity="1"></use></g><g><use xlink:href="#a1e61S0HlE" opacity="1" fill="#ff7800" fill-opacity="1"></use></g><g><use xlink:href="#gSUbwJssk" opacity="1" fill="#ff7800" fill-opacity="1"></use></g></g></svg>